<svg xmlns="http://www.w3.org/2000/svg" viewBox="0 0 1200 750">
  <!-- Placeholder app screenshot — replace with real screenshot -->
  <rect width="1200" height="750" rx="12" fill="#1c1c1e"/>
  <!-- Sidebar -->
  <rect width="260" height="750" rx="0" fill="#2c2c2e"/>
  <!-- Sidebar header -->
  <rect x="20" y="20" width="160" height="20" rx="6" fill="#3a3a3c"/>
  <rect x="20" y="56" width="220" height="36" rx="8" fill="#3a3a3c"/>
  <!-- Channel rows -->
  <rect x="12" y="108" width="236" height="44" rx="8" fill="#0071e3" opacity=".8"/>
  <rect x="20" y="120" width="100" height="10" rx="4" fill="#fff" opacity=".9"/>
  <rect x="20" y="136" width="70" height="8" rx="4" fill="#fff" opacity=".5"/>
  <rect x="12" y="158" width="236" height="44" rx="8" fill="#3a3a3c"/>
  <rect x="20" y="170" width="120" height="10" rx="4" fill="#8e8e93"/>
  <rect x="20" y="186" width="80" height="8" rx="4" fill="#636366"/>
  <rect x="12" y="208" width="236" height="44" rx="8" fill="#3a3a3c"/>
  <rect x="20" y="220" width="90" height="10" rx="4" fill="#8e8e93"/>
  <rect x="20" y="236" width="60" height="8" rx="4" fill="#636366"/>
  <rect x="12" y="258" width="236" height="44" rx="8" fill="#3a3a3c"/>
  <rect x="20" y="270" width="130" height="10" rx="4" fill="#8e8e93"/>
  <rect x="20" y="286" width="90" height="8" rx="4" fill="#636366"/>
  <rect x="12" y="308" width="236" height="44" rx="8" fill="#3a3a3c"/>
  <rect x="20" y="320" width="110" height="10" rx="4" fill="#8e8e93"/>
  <rect x="12" y="358" width="236" height="44" rx="8" fill="#3a3a3c"/>
  <rect x="20" y="370" width="140" height="10" rx="4" fill="#8e8e93"/>
  <!-- Main video area -->
  <rect x="270" y="0" width="930" height="750" fill="#000000"/>
  <!-- Video content placeholder -->
  <rect x="270" y="0" width="930" height="640" fill="#0a0a0a"/>
  <!-- Play indicator -->
  <circle cx="735" cy="320" r="48" fill="#ffffff" opacity=".08"/>
  <polygon points="724,300 724,340 760,320" fill="#ffffff" opacity=".25"/>
  <!-- Bottom controls bar -->
  <rect x="270" y="640" width="930" height="110" fill="#1c1c1e"/>
  <rect x="290" y="660" width="600" height="6" rx="3" fill="#3a3a3c"/>
  <rect x="290" y="660" width="180" height="6" rx="3" fill="#0071e3"/>
  <rect x="290" y="688" width="200" height="12" rx="4" fill="#3a3a3c"/>
  <rect x="290" y="708" width="140" height="10" rx="4" fill="#2c2c2e"/>
  <!-- Now playing label -->
  <text x="920" y="720" text-anchor="end"
        font-family="-apple-system, sans-serif" font-size="12" fill="#636366">
    Replace with real screenshot
  </text>
</svg>
