<svg xmlns="http://www.w3.org/2000/svg" viewBox="0 0 1200 750" width="1200" height="750">
<defs>
  <linearGradient id="studioGrad" x1="0%" y1="0%" x2="100%" y2="100%">
    <stop offset="0%" stop-color="#0a1830"/>
    <stop offset="60%" stop-color="#0d2245"/>
    <stop offset="100%" stop-color="#060c18"/>
  </linearGradient>
  <linearGradient id="deskGrad" x1="0%" y1="0%" x2="0%" y2="100%">
    <stop offset="0%" stop-color="#2a3e5e"/>
    <stop offset="100%" stop-color="#1a2a40"/>
  </linearGradient>
  <linearGradient id="fadeBottom" x1="0%" y1="0%" x2="0%" y2="100%">
    <stop offset="0%" stop-color="#000" stop-opacity="0"/>
    <stop offset="70%" stop-color="#000" stop-opacity="0"/>
    <stop offset="100%" stop-color="#000" stop-opacity="0.75"/>
  </linearGradient>
  <linearGradient id="sidebarGrad" x1="0%" y1="0%" x2="100%" y2="0%">
    <stop offset="0%" stop-color="#242426"/>
    <stop offset="100%" stop-color="#1e1e20"/>
  </linearGradient>
  <clipPath id="sidebarClip">
    <rect x="0" y="44" width="264" height="706"/>
  </clipPath>
  <clipPath id="videoClip">
    <rect x="264" y="44" width="936" height="626"/>
  </clipPath>
</defs>

<!-- ═══════════════════════════════════════
     WINDOW CHROME
     ═══════════════════════════════════════ -->
<rect width="1200" height="750" fill="#1c1c1e"/>

<!-- Title bar -->
<rect width="1200" height="44" fill="#2c2c2e"/>
<line x1="0" y1="44" x2="1200" y2="44" stroke="#404040" stroke-width="1"/>

<!-- Traffic lights -->
<circle cx="20" cy="22" r="6.5" fill="#ff5f56"/>
<circle cx="42" cy="22" r="6.5" fill="#ffbd2e"/>
<circle cx="64" cy="22" r="6.5" fill="#27c93f"/>

<!-- Window title -->
<text x="600" y="28" text-anchor="middle" font-family="-apple-system, BlinkMacSystemFont, sans-serif" font-size="13" font-weight="500" fill="#c8c8c8" letter-spacing="-0.2">BBC News — Aero</text>

<!-- ═══════════════════════════════════════
     SIDEBAR
     ═══════════════════════════════════════ -->
<rect x="0" y="44" width="264" height="706" fill="url(#sidebarGrad)"/>
<line x1="264" y1="44" x2="264" y2="750" stroke="#3a3a3c" stroke-width="1"/>

<!-- Search bar -->
<rect x="10" y="56" width="244" height="30" rx="8" fill="#3a3a3c"/>
<circle cx="28" cy="71" r="5.5" fill="none" stroke="#636366" stroke-width="1.5"/>
<line x1="32" y1="75" x2="36" y2="79" stroke="#636366" stroke-width="1.5" stroke-linecap="round"/>
<text x="44" y="76" font-family="-apple-system, BlinkMacSystemFont, sans-serif" font-size="12.5" fill="#505055">Search channels…</text>

<!-- Filter pills -->
<rect x="10" y="94" width="34" height="20" rx="10" fill="#0071e3"/>
<text x="27" y="108" text-anchor="middle" font-family="-apple-system, BlinkMacSystemFont, sans-serif" font-size="11" fill="#fff">All</text>

<rect x="50" y="94" width="44" height="20" rx="10" fill="#3a3a3c"/>
<text x="72" y="108" text-anchor="middle" font-family="-apple-system, BlinkMacSystemFont, sans-serif" font-size="11" fill="#8e8e93">News</text>

<rect x="100" y="94" width="44" height="20" rx="10" fill="#3a3a3c"/>
<text x="122" y="108" text-anchor="middle" font-family="-apple-system, BlinkMacSystemFont, sans-serif" font-size="11" fill="#8e8e93">Sport</text>

<rect x="150" y="94" width="56" height="20" rx="10" fill="#3a3a3c"/>
<text x="178" y="108" text-anchor="middle" font-family="-apple-system, BlinkMacSystemFont, sans-serif" font-size="11" fill="#8e8e93">Movies</text>

<!-- ── Group label: NEWS ── -->
<text x="14" y="132" font-family="-apple-system, BlinkMacSystemFont, sans-serif" font-size="10" font-weight="600" fill="#4a4a50" letter-spacing="0.08em">NEWS</text>

<!-- Channel 1 — BBC News (ACTIVE) -->
<rect x="4" y="138" width="256" height="52" rx="8" fill="#0071e3"/>
<rect x="14" y="148" width="32" height="32" rx="7" fill="rgba(255,255,255,0.18)"/>
<text x="30" y="162" text-anchor="middle" font-family="-apple-system, BlinkMacSystemFont, sans-serif" font-size="7.5" font-weight="800" fill="#fff">BBC</text>
<text x="30" y="173" text-anchor="middle" font-family="-apple-system, BlinkMacSystemFont, sans-serif" font-size="7.5" font-weight="800" fill="#fff">NEWS</text>
<text x="54" y="158" font-family="-apple-system, BlinkMacSystemFont, sans-serif" font-size="13" font-weight="600" fill="#fff" letter-spacing="-0.2">BBC News</text>
<text x="54" y="174" font-family="-apple-system, BlinkMacSystemFont, sans-serif" font-size="11" fill="rgba(255,255,255,0.72)">BBC World News • Live</text>
<!-- Volume bars -->
<rect x="234" y="163" width="3" height="8" rx="1" fill="rgba(255,255,255,0.9)"/>
<rect x="239" y="159" width="3" height="12" rx="1" fill="rgba(255,255,255,0.9)"/>
<rect x="244" y="155" width="3" height="16" rx="1" fill="rgba(255,255,255,0.5)"/>

<!-- Channel 2 — CNN -->
<rect x="4" y="194" width="256" height="52" rx="8" fill="transparent"/>
<rect x="14" y="204" width="32" height="32" rx="7" fill="#c8102e"/>
<text x="30" y="224" text-anchor="middle" font-family="-apple-system, BlinkMacSystemFont, sans-serif" font-size="8.5" font-weight="800" fill="#fff">CNN</text>
<text x="54" y="214" font-family="-apple-system, BlinkMacSystemFont, sans-serif" font-size="13" font-weight="500" fill="#e0e0e0" letter-spacing="-0.2">CNN International</text>
<text x="54" y="230" font-family="-apple-system, BlinkMacSystemFont, sans-serif" font-size="11" fill="#5a5a60">The Lead with Jake Tapper</text>

<!-- Channel 3 — Sky News -->
<rect x="4" y="250" width="256" height="52" rx="8" fill="transparent"/>
<rect x="14" y="260" width="32" height="32" rx="7" fill="#e8272a"/>
<text x="30" y="278" text-anchor="middle" font-family="-apple-system, BlinkMacSystemFont, sans-serif" font-size="7" font-weight="800" fill="#fff">SKY</text>
<text x="30" y="288" text-anchor="middle" font-family="-apple-system, BlinkMacSystemFont, sans-serif" font-size="7" font-weight="800" fill="#fff">NEWS</text>
<text x="54" y="270" font-family="-apple-system, BlinkMacSystemFont, sans-serif" font-size="13" font-weight="500" fill="#e0e0e0" letter-spacing="-0.2">Sky News</text>
<text x="54" y="286" font-family="-apple-system, BlinkMacSystemFont, sans-serif" font-size="11" fill="#5a5a60">Breaking News</text>

<!-- Channel 4 — Al Jazeera -->
<rect x="4" y="306" width="256" height="52" rx="8" fill="transparent"/>
<rect x="14" y="316" width="32" height="32" rx="7" fill="#7d1b1b"/>
<text x="30" y="332" text-anchor="middle" font-family="-apple-system, BlinkMacSystemFont, sans-serif" font-size="6.5" font-weight="800" fill="#fff">AL</text>
<text x="30" y="341" text-anchor="middle" font-family="-apple-system, BlinkMacSystemFont, sans-serif" font-size="6.5" font-weight="800" fill="#fff">JAZEERA</text>
<text x="54" y="326" font-family="-apple-system, BlinkMacSystemFont, sans-serif" font-size="13" font-weight="500" fill="#e0e0e0" letter-spacing="-0.2">Al Jazeera English</text>
<text x="54" y="342" font-family="-apple-system, BlinkMacSystemFont, sans-serif" font-size="11" fill="#5a5a60">Inside Story</text>

<!-- ── Group label: SPORT ── -->
<text x="14" y="376" font-family="-apple-system, BlinkMacSystemFont, sans-serif" font-size="10" font-weight="600" fill="#4a4a50" letter-spacing="0.08em">SPORT</text>

<!-- Channel 5 — Sky Sports -->
<rect x="4" y="382" width="256" height="52" rx="8" fill="transparent"/>
<rect x="14" y="392" width="32" height="32" rx="7" fill="#003087"/>
<text x="30" y="408" text-anchor="middle" font-family="-apple-system, BlinkMacSystemFont, sans-serif" font-size="7" font-weight="800" fill="#fff">SKY</text>
<text x="30" y="418" text-anchor="middle" font-family="-apple-system, BlinkMacSystemFont, sans-serif" font-size="7" font-weight="800" fill="#fff">SPORT</text>
<text x="54" y="402" font-family="-apple-system, BlinkMacSystemFont, sans-serif" font-size="13" font-weight="500" fill="#e0e0e0" letter-spacing="-0.2">Sky Sports Main Event</text>
<text x="54" y="418" font-family="-apple-system, BlinkMacSystemFont, sans-serif" font-size="11" fill="#5a5a60">Premier League</text>

<!-- Channel 6 — TNT Sports -->
<rect x="4" y="438" width="256" height="52" rx="8" fill="transparent"/>
<rect x="14" y="448" width="32" height="32" rx="7" fill="#e66000"/>
<text x="30" y="465" text-anchor="middle" font-family="-apple-system, BlinkMacSystemFont, sans-serif" font-size="7.5" font-weight="800" fill="#fff">TNT</text>
<text x="54" y="458" font-family="-apple-system, BlinkMacSystemFont, sans-serif" font-size="13" font-weight="500" fill="#e0e0e0" letter-spacing="-0.2">TNT Sports 1</text>
<text x="54" y="474" font-family="-apple-system, BlinkMacSystemFont, sans-serif" font-size="11" fill="#5a5a60">UEFA Champions League</text>

<!-- ── Group label: ENTERTAINMENT ── -->
<text x="14" y="508" font-family="-apple-system, BlinkMacSystemFont, sans-serif" font-size="10" font-weight="600" fill="#4a4a50" letter-spacing="0.08em">ENTERTAINMENT</text>

<!-- Channel 7 — BBC One -->
<rect x="4" y="514" width="256" height="52" rx="8" fill="transparent"/>
<rect x="14" y="524" width="32" height="32" rx="7" fill="#003d8f"/>
<text x="30" y="540" text-anchor="middle" font-family="-apple-system, BlinkMacSystemFont, sans-serif" font-size="6.5" font-weight="800" fill="#fff">BBC</text>
<text x="30" y="549" text-anchor="middle" font-family="-apple-system, BlinkMacSystemFont, sans-serif" font-size="6.5" font-weight="800" fill="#fff">ONE</text>
<text x="54" y="534" font-family="-apple-system, BlinkMacSystemFont, sans-serif" font-size="13" font-weight="500" fill="#e0e0e0" letter-spacing="-0.2">BBC One HD</text>
<text x="54" y="550" font-family="-apple-system, BlinkMacSystemFont, sans-serif" font-size="11" fill="#5a5a60">EastEnders</text>

<!-- Channel 8 — ITV -->
<rect x="4" y="570" width="256" height="52" rx="8" fill="transparent"/>
<rect x="14" y="580" width="32" height="32" rx="7" fill="#404040"/>
<text x="30" y="600" text-anchor="middle" font-family="-apple-system, BlinkMacSystemFont, sans-serif" font-size="9" font-weight="800" fill="#fff">ITV</text>
<text x="54" y="590" font-family="-apple-system, BlinkMacSystemFont, sans-serif" font-size="13" font-weight="500" fill="#e0e0e0" letter-spacing="-0.2">ITV HD</text>
<text x="54" y="606" font-family="-apple-system, BlinkMacSystemFont, sans-serif" font-size="11" fill="#5a5a60">Good Morning Britain</text>

<!-- Channel 9 — Discovery -->
<rect x="4" y="626" width="256" height="52" rx="8" fill="transparent"/>
<rect x="14" y="636" width="32" height="32" rx="7" fill="#2d5fa3"/>
<text x="30" y="653" text-anchor="middle" font-family="-apple-system, BlinkMacSystemFont, sans-serif" font-size="6.5" font-weight="800" fill="#fff">DISC</text>
<text x="30" y="662" text-anchor="middle" font-family="-apple-system, BlinkMacSystemFont, sans-serif" font-size="6.5" font-weight="800" fill="#fff">OVERY</text>
<text x="54" y="646" font-family="-apple-system, BlinkMacSystemFont, sans-serif" font-size="13" font-weight="500" fill="#e0e0e0" letter-spacing="-0.2">Discovery Channel</text>
<text x="54" y="662" font-family="-apple-system, BlinkMacSystemFont, sans-serif" font-size="11" fill="#5a5a60">How It's Made</text>

<!-- Channel 10 — National Geographic -->
<rect x="4" y="682" width="256" height="52" rx="8" fill="transparent"/>
<rect x="14" y="692" width="32" height="32" rx="7" fill="#f5c518"/>
<text x="30" y="708" text-anchor="middle" font-family="-apple-system, BlinkMacSystemFont, sans-serif" font-size="6.5" font-weight="800" fill="#000">NAT</text>
<text x="30" y="717" text-anchor="middle" font-family="-apple-system, BlinkMacSystemFont, sans-serif" font-size="6.5" font-weight="800" fill="#000">GEO</text>
<text x="54" y="702" font-family="-apple-system, BlinkMacSystemFont, sans-serif" font-size="13" font-weight="500" fill="#e0e0e0" letter-spacing="-0.2">Nat Geo Wild</text>
<text x="54" y="718" font-family="-apple-system, BlinkMacSystemFont, sans-serif" font-size="11" fill="#5a5a60">Planet Earth III</text>

<!-- Sidebar fade at bottom -->
<rect x="0" y="700" width="264" height="50" fill="url(#sidebarFade)"/>
<defs>
  <linearGradient id="sidebarFade" x1="0%" y1="0%" x2="0%" y2="100%">
    <stop offset="0%" stop-color="#1e1e20" stop-opacity="0"/>
    <stop offset="100%" stop-color="#1e1e20" stop-opacity="0.9"/>
  </linearGradient>
</defs>

<!-- ═══════════════════════════════════════
     VIDEO AREA — BBC News studio
     ═══════════════════════════════════════ -->
<rect x="264" y="44" width="936" height="626" fill="url(#studioGrad)"/>

<!-- Studio background elements — abstract set lighting -->
<ellipse cx="700" cy="200" rx="380" ry="200" fill="#0d2550" opacity="0.6"/>
<ellipse cx="900" cy="150" rx="200" ry="150" fill="#112050" opacity="0.4"/>
<ellipse cx="500" cy="180" rx="180" ry="120" fill="#0a1c40" opacity="0.4"/>

<!-- Studio set grid lines (subtle) -->
<line x1="264" y1="250" x2="1200" y2="250" stroke="#ffffff" stroke-width="0.5" opacity="0.04"/>
<line x1="264" y1="350" x2="1200" y2="350" stroke="#ffffff" stroke-width="0.5" opacity="0.04"/>
<line x1="264" y1="450" x2="1200" y2="450" stroke="#ffffff" stroke-width="0.5" opacity="0.04"/>
<line x1="550" y1="44" x2="550" y2="670" stroke="#ffffff" stroke-width="0.5" opacity="0.03"/>
<line x1="732" y1="44" x2="732" y2="670" stroke="#ffffff" stroke-width="0.5" opacity="0.03"/>
<line x1="914" y1="44" x2="914" y2="670" stroke="#ffffff" stroke-width="0.5" opacity="0.03"/>

<!-- Studio back panel — screen display -->
<rect x="400" y="80" width="640" height="360" rx="4" fill="#071428" opacity="0.8"/>
<rect x="408" y="88" width="624" height="344" rx="2" fill="#050e1e" opacity="0.9"/>
<!-- World map graphic (very simplified) -->
<ellipse cx="720" cy="260" rx="260" ry="150" fill="none" stroke="#1a3a6a" stroke-width="1" opacity="0.6"/>
<ellipse cx="720" cy="260" rx="200" ry="150" fill="none" stroke="#1a3a6a" stroke-width="0.5" opacity="0.4"/>
<!-- Continent blobs (abstract) -->
<path d="M560 200 Q580 180 620 185 Q650 170 660 200 Q670 220 640 230 Q610 240 585 225 Z" fill="#1a3a6a" opacity="0.7"/>
<path d="M680 190 Q720 175 760 185 Q780 195 775 215 Q760 235 730 240 Q700 245 685 225 Z" fill="#1a3a6a" opacity="0.7"/>
<path d="M790 200 Q830 185 860 195 Q875 210 865 230 Q845 245 815 240 Q795 230 790 215 Z" fill="#1a3a6a" opacity="0.6"/>
<path d="M620 240 Q640 230 660 240 Q665 260 645 275 Q625 280 615 265 Z" fill="#1a3a6a" opacity="0.6"/>
<path d="M580 260 Q600 270 595 300 Q580 315 565 305 Q555 285 565 270 Z" fill="#1a3a6a" opacity="0.5"/>
<!-- Highlight dots on map -->
<circle cx="616" cy="210" r="3" fill="#4a9eff" opacity="0.8"/>
<circle cx="720" cy="205" r="3" fill="#4a9eff" opacity="0.6"/>
<circle cx="840" cy="215" r="3" fill="#4a9eff" opacity="0.5"/>
<circle cx="660" cy="260" r="3" fill="#4a9eff" opacity="0.7"/>

<!-- "BBC NEWS" watermark on screen -->
<text x="720" y="300" text-anchor="middle" font-family="-apple-system, BlinkMacSystemFont, sans-serif" font-size="18" font-weight="900" fill="#c8102e" opacity="0.4" letter-spacing="4">BBC NEWS</text>

<!-- Studio desk -->
<ellipse cx="732" cy="560" rx="330" ry="48" fill="url(#deskGrad)"/>
<ellipse cx="732" cy="555" rx="325" ry="16" fill="#2a3e5e" opacity="0.5"/>

<!-- Presenter — simplified abstract form -->
<!-- Suit/jacket -->
<path d="M640 555 Q660 490 690 470 Q715 458 732 460 Q749 458 774 470 Q804 490 824 555 Z" fill="#0f1a30"/>
<!-- Shirt + tie area -->
<rect x="726" y="460" width="12" height="95" rx="2" fill="#e8d8c0" opacity="0.25"/>
<!-- Head -->
<ellipse cx="732" cy="415" rx="44" ry="50" fill="#c4a882" opacity="0.88"/>
<!-- Hair (dark) -->
<ellipse cx="732" cy="390" rx="44" ry="24" fill="#1a1208" opacity="0.9"/>
<!-- Jacket lapels -->
<path d="M690 470 Q705 490 718 500 L718 555 L690 555 Z" fill="#0a1222" opacity="0.8"/>
<path d="M774 470 Q759 490 746 500 L746 555 L774 555 Z" fill="#0a1222" opacity="0.8"/>

<!-- Bottom gradient over video -->
<rect x="264" y="44" width="936" height="626" fill="url(#fadeBottom)"/>

<!-- Clock top right -->
<text x="1186" y="80" text-anchor="end" font-family="-apple-system, BlinkMacSystemFont, sans-serif" font-size="22" font-weight="200" fill="rgba(255,255,255,0.85)" letter-spacing="1">09:41</text>

<!-- ── Lower third ── -->
<rect x="280" y="530" width="30" height="84" fill="#c8102e"/>
<rect x="310" y="530" width="580" height="84" fill="rgba(5,15,35,0.92)"/>

<!-- BBC NEWS badge -->
<rect x="286" y="537" width="0" height="0"/>
<text x="295" y="548" font-family="-apple-system, BlinkMacSystemFont, sans-serif" font-size="6.5" font-weight="900" fill="#fff" letter-spacing="0.5" writing-mode="tb" text-anchor="middle" transform="rotate(0)">&#8203;</text>
<!-- Vertical BBC NEWS text -->
<text x="295" y="556" text-anchor="middle" font-family="-apple-system, BlinkMacSystemFont, sans-serif" font-size="7" font-weight="900" fill="#fff" letter-spacing="1">BBC</text>
<text x="295" y="567" text-anchor="middle" font-family="-apple-system, BlinkMacSystemFont, sans-serif" font-size="7" font-weight="900" fill="#fff" letter-spacing="0.5">NEWS</text>
<text x="295" y="578" text-anchor="middle" font-family="-apple-system, BlinkMacSystemFont, sans-serif" font-size="7" font-weight="900" fill="#fff" letter-spacing="1">24</text>
<text x="295" y="589" text-anchor="middle" font-family="-apple-system, BlinkMacSystemFont, sans-serif" font-size="7" font-weight="900" fill="#fff" letter-spacing="1">HD</text>
<text x="295" y="604" text-anchor="middle" font-family="-apple-system, BlinkMacSystemFont, sans-serif" font-size="6" font-weight="600" fill="rgba(255,255,255,0.7)">LIVE</text>

<!-- Name plate -->
<rect x="314" y="536" width="200" height="22" rx="0" fill="#c8102e"/>
<text x="322" y="552" font-family="-apple-system, BlinkMacSystemFont, sans-serif" font-size="13" font-weight="700" fill="#fff" letter-spacing="0.5">HUWEL EDWARDS</text>
<text x="322" y="566" font-family="-apple-system, BlinkMacSystemFont, sans-serif" font-size="11" fill="rgba(255,255,255,0.72)">Presenter, BBC News at Six</text>

<!-- Headline -->
<text x="322" y="586" font-family="-apple-system, BlinkMacSystemFont, sans-serif" font-size="17" font-weight="600" fill="#ffffff" letter-spacing="-0.4">Global markets respond to new economic data</text>
<text x="322" y="606" font-family="-apple-system, BlinkMacSystemFont, sans-serif" font-size="13" fill="rgba(255,255,255,0.6)" letter-spacing="-0.2">Stocks rise as Federal Reserve holds rates steady</text>

<!-- ── Ticker ── -->
<rect x="264" y="638" width="936" height="32" fill="#c8102e"/>
<rect x="264" y="638" width="80" height="32" fill="#8b0a14"/>
<text x="304" y="659" text-anchor="middle" font-family="-apple-system, BlinkMacSystemFont, sans-serif" font-size="11" font-weight="800" fill="#fff" letter-spacing="0.5">LIVE</text>
<text x="360" y="659" font-family="-apple-system, BlinkMacSystemFont, sans-serif" font-size="12" fill="rgba(255,255,255,0.95)" letter-spacing="0.1">Markets up 1.4% in early trading  •  Tech stocks lead gains  •  Oil at $84/barrel  •  FTSE 100 at record high</text>

<!-- ═══════════════════════════════════════
     EPG STRIP
     ═══════════════════════════════════════ -->
<rect x="264" y="670" width="936" height="80" fill="#1c1c1e"/>
<line x1="264" y1="670" x2="1200" y2="670" stroke="#3a3a3c" stroke-width="1"/>

<!-- EPG label -->
<text x="280" y="686" font-family="-apple-system, BlinkMacSystemFont, sans-serif" font-size="10" font-weight="600" fill="#4a4a50" letter-spacing="0.1em">NOW &amp; NEXT  —  BBC NEWS</text>

<!-- Current programme -->
<rect x="280" y="692" width="290" height="50" rx="8" fill="#2c2c2e"/>
<rect x="280" y="692" width="4" height="50" rx="2" fill="#0071e3"/>
<text x="294" y="708" font-family="-apple-system, BlinkMacSystemFont, sans-serif" font-size="12" font-weight="600" fill="#f0f0f0" letter-spacing="-0.2">BBC World News</text>
<text x="294" y="722" font-family="-apple-system, BlinkMacSystemFont, sans-serif" font-size="11" fill="#5a5a60">09:00 – 10:00  ·  Now</text>
<!-- Progress bar -->
<rect x="294" y="732" width="264" height="3" rx="1.5" fill="#3a3a3c"/>
<rect x="294" y="732" width="96" height="3" rx="1.5" fill="#0071e3"/>

<!-- Next programme -->
<rect x="578" y="692" width="240" height="50" rx="8" fill="#242426"/>
<text x="594" y="708" font-family="-apple-system, BlinkMacSystemFont, sans-serif" font-size="12" font-weight="500" fill="#8e8e93" letter-spacing="-0.2">The Papers</text>
<text x="594" y="722" font-family="-apple-system, BlinkMacSystemFont, sans-serif" font-size="11" fill="#4a4a50">10:00 – 10:30</text>

<!-- Later -->
<rect x="826" y="692" width="220" height="50" rx="8" fill="#242426"/>
<text x="842" y="708" font-family="-apple-system, BlinkMacSystemFont, sans-serif" font-size="12" font-weight="500" fill="#8e8e93" letter-spacing="-0.2">HARDtalk</text>
<text x="842" y="722" font-family="-apple-system, BlinkMacSystemFont, sans-serif" font-size="11" fill="#4a4a50">10:30 – 11:00</text>

<!-- Later 2 -->
<rect x="1054" y="692" width="130" height="50" rx="8" fill="#1e1e20"/>
<text x="1070" y="708" font-family="-apple-system, BlinkMacSystemFont, sans-serif" font-size="12" font-weight="500" fill="#636366" letter-spacing="-0.2">Panorama</text>
<text x="1070" y="722" font-family="-apple-system, BlinkMacSystemFont, sans-serif" font-size="11" fill="#3a3a3c">11:00 – 12:00</text>

</svg>
